<svg xmlns="http://www.w3.org/2000/svg" viewBox="0 0 1080 456"><rect width="100%" height="100%" fill="white"/><text x="24" y="38" font-family="system-ui,sans-serif" font-size="23" font-weight="700">主要國家 10 年期公債殖利率｜2026-10-08</text><text x="768" y="60" font-family="system-ui,sans-serif" font-size="12">1日 / 3日 / 7日（bp）</text><text x="168" y="95" text-anchor="end" font-family="system-ui,sans-serif" font-size="15">英國</text><rect x="180" y="79" width="517.4" height="23" rx="4" fill="#222"/><text x="706.4175" y="96" font-family="system-ui,sans-serif" font-size="13">5.447%</text><text x="768" y="96" font-family="system-ui,sans-serif" font-size="13">-0.4 / +2.0 / +4.4</text><text x="168" y="141" text-anchor="end" font-family="system-ui,sans-serif" font-size="15">澳洲</text><rect x="180" y="125" width="511.9" height="23" rx="4" fill="#222"/><text x="700.8599999999999" y="142" font-family="system-ui,sans-serif" font-size="13">5.388%</text><text x="768" y="142" font-family="system-ui,sans-serif" font-size="13">-1.3 / +4.2 / -1.3</text><text x="168" y="187" text-anchor="end" font-family="system-ui,sans-serif" font-size="15">美國</text><rect x="180" y="171" width="503.6" height="23" rx="4" fill="#222"/><text x="692.595" y="188" font-family="system-ui,sans-serif" font-size="13">5.301%</text><text x="768" y="188" font-family="system-ui,sans-serif" font-size="13">+1.3 / -1.0 / +6.7</text><text x="168" y="233" text-anchor="end" font-family="system-ui,sans-serif" font-size="15">法國</text><rect x="180" y="217" width="464.7" height="23" rx="4" fill="#222"/><text x="653.74" y="234" font-family="system-ui,sans-serif" font-size="13">4.892%</text><text x="768" y="234" font-family="system-ui,sans-serif" font-size="13">+2.3 / +2.7 / -3.2</text><text x="168" y="279" text-anchor="end" font-family="system-ui,sans-serif" font-size="15">德國</text><rect x="180" y="263" width="330.6" height="23" rx="4" fill="#222"/><text x="519.6475" y="280" font-family="system-ui,sans-serif" font-size="13">3.481%</text><text x="768" y="280" font-family="system-ui,sans-serif" font-size="13">0.0 / -1.2 / -4.0</text><text x="168" y="325" text-anchor="end" font-family="system-ui,sans-serif" font-size="15">日本</text><rect x="180" y="309" width="293.0" height="23" rx="4" fill="#222"/><text x="481.98" y="326" font-family="system-ui,sans-serif" font-size="13">3.084%</text><text x="768" y="326" font-family="system-ui,sans-serif" font-size="13">-2.3 / -0.4 / -1.6</text><text x="168" y="371" text-anchor="end" font-family="system-ui,sans-serif" font-size="15">中國</text><rect x="180" y="355" width="161.3" height="23" rx="4" fill="#222"/><text x="350.291" y="372" font-family="system-ui,sans-serif" font-size="13">1.698%</text><text x="768" y="372" font-family="system-ui,sans-serif" font-size="13">+1.5 / +1.5 / +1.5</text></svg>