<svg xmlns="http://www.w3.org/2000/svg" viewBox="0 0 980 328"><rect width="100%" height="100%" fill="white"/><text x="24" y="38" font-family="system-ui,sans-serif" font-size="23" font-weight="700">台灣前 20 大企業產業市值占比｜2026-10-08</text><text x="258" y="88" text-anchor="end" font-family="system-ui,sans-serif" font-size="14">半導體與設備</text><rect x="270" y="73" width="600" height="22" rx="4" fill="#eee"/><rect x="270" y="73" width="467.9" height="22" rx="4" fill="#222"/><text x="880" y="89" font-family="system-ui,sans-serif" font-size="13">78.0%</text><text x="258" y="130" text-anchor="end" font-family="system-ui,sans-serif" font-size="14">電子／硬體</text><rect x="270" y="115" width="600" height="22" rx="4" fill="#eee"/><rect x="270" y="115" width="78.3" height="22" rx="4" fill="#222"/><text x="880" y="131" font-family="system-ui,sans-serif" font-size="13">13.1%</text><text x="258" y="172" text-anchor="end" font-family="system-ui,sans-serif" font-size="14">金融</text><rect x="270" y="157" width="600" height="22" rx="4" fill="#eee"/><rect x="270" y="157" width="30.7" height="22" rx="4" fill="#222"/><text x="880" y="173" font-family="system-ui,sans-serif" font-size="13">5.1%</text><text x="258" y="214" text-anchor="end" font-family="system-ui,sans-serif" font-size="14">原物料／能源</text><rect x="270" y="199" width="600" height="22" rx="4" fill="#eee"/><rect x="270" y="199" width="17.4" height="22" rx="4" fill="#222"/><text x="880" y="215" font-family="system-ui,sans-serif" font-size="13">2.9%</text><text x="258" y="256" text-anchor="end" font-family="system-ui,sans-serif" font-size="14">電信</text><rect x="270" y="241" width="600" height="22" rx="4" fill="#eee"/><rect x="270" y="241" width="5.6" height="22" rx="4" fill="#222"/><text x="880" y="257" font-family="system-ui,sans-serif" font-size="13">0.9%</text></svg>