<svg xmlns="http://www.w3.org/2000/svg" viewBox="0 0 920 317" role="img" aria-label="Taiwan Top 20 sector share"><rect width="100%" height="100%" fill="#ffffff"/><text x="24" y="34" font-family="system-ui,sans-serif" font-size="22" font-weight="700" fill="#111">Taiwan Top 20 sector share</text><text x="248" y="83" text-anchor="end" font-family="system-ui,sans-serif" font-size="14" fill="#333">Semiconductors</text><rect x="260" y="68" width="580" height="22" rx="4" fill="#eee"/><rect x="260" y="68" width="453.0" height="22" rx="4" fill="#222"/><text x="848" y="84" font-family="system-ui,sans-serif" font-size="13" fill="#555">78.1%</text><text x="248" y="125" text-anchor="end" font-family="system-ui,sans-serif" font-size="14" fill="#333">Electronics / Hardware</text><rect x="260" y="110" width="580" height="22" rx="4" fill="#eee"/><rect x="260" y="110" width="75.4" height="22" rx="4" fill="#222"/><text x="848" y="126" font-family="system-ui,sans-serif" font-size="13" fill="#555">13.0%</text><text x="248" y="167" text-anchor="end" font-family="system-ui,sans-serif" font-size="14" fill="#333">Financials</text><rect x="260" y="152" width="580" height="22" rx="4" fill="#eee"/><rect x="260" y="152" width="29.6" height="22" rx="4" fill="#222"/><text x="848" y="168" font-family="system-ui,sans-serif" font-size="13" fill="#555">5.1%</text><text x="248" y="209" text-anchor="end" font-family="system-ui,sans-serif" font-size="14" fill="#333">Materials / Energy</text><rect x="260" y="194" width="580" height="22" rx="4" fill="#eee"/><rect x="260" y="194" width="16.8" height="22" rx="4" fill="#222"/><text x="848" y="210" font-family="system-ui,sans-serif" font-size="13" fill="#555">2.9%</text><text x="248" y="251" text-anchor="end" font-family="system-ui,sans-serif" font-size="14" fill="#333">Telecom</text><rect x="260" y="236" width="580" height="22" rx="4" fill="#eee"/><rect x="260" y="236" width="5.2" height="22" rx="4" fill="#222"/><text x="848" y="252" font-family="system-ui,sans-serif" font-size="13" fill="#555">0.9%</text></svg>