<svg xmlns="http://www.w3.org/2000/svg" viewBox="0 0 1100 520" role="img" aria-label="七國 10 年期公債殖利率（截至 10/09 快照）"><rect width="1100" height="520" fill="#fff"/><text x="35" y="42" font-family="sans-serif" font-size="25" font-weight="bold" fill="#162535">七國 10 年期公債殖利率（截至 10/09 快照）</text><text x="40" y="78" font-family="sans-serif" font-size="14" fill="#263238" text-anchor="start">最後快照 10/09；中國假期來源日須另核，無 10/10 最新報價</text><line x1="120" y1="115" x2="840" y2="115" stroke="#d5dce3"/><text x="105" y="120" font-family="sans-serif" font-size="13" fill="#666" text-anchor="end">6.00%</text><line x1="120" y1="179" x2="840" y2="179" stroke="#d5dce3"/><text x="105" y="184" font-family="sans-serif" font-size="13" fill="#666" text-anchor="end">5.10%</text><line x1="120" y1="243" x2="840" y2="243" stroke="#d5dce3"/><text x="105" y="248" font-family="sans-serif" font-size="13" fill="#666" text-anchor="end">4.20%</text><line x1="120" y1="307" x2="840" y2="307" stroke="#d5dce3"/><text x="105" y="312" font-family="sans-serif" font-size="13" fill="#666" text-anchor="end">3.30%</text><line x1="120" y1="371" x2="840" y2="371" stroke="#d5dce3"/><text x="105" y="376" font-family="sans-serif" font-size="13" fill="#666" text-anchor="end">2.40%</text><line x1="120" y1="435" x2="840" y2="435" stroke="#d5dce3"/><text x="105" y="440" font-family="sans-serif" font-size="13" fill="#666" text-anchor="end">1.50%</text><text x="120" y="472" font-family="sans-serif" font-size="14" fill="#555" text-anchor="middle">10-02</text><text x="264" y="472" font-family="sans-serif" font-size="14" fill="#555" text-anchor="middle">10-05</text><text x="408" y="472" font-family="sans-serif" font-size="14" fill="#555" text-anchor="middle">10-06</text><text x="552" y="472" font-family="sans-serif" font-size="14" fill="#555" text-anchor="middle">10-07</text><text x="696" y="472" font-family="sans-serif" font-size="14" fill="#555" text-anchor="middle">10-08</text><text x="840" y="472" font-family="sans-serif" font-size="14" fill="#555" text-anchor="middle">10-09</text><polyline fill="none" stroke="#3772b5" stroke-width="3" points="120.0,166.4 264.0,164.0 408.0,166.8 552.0,165.6 696.0,164.1 840.0,169.3"/><circle cx="120" cy="166.41333333333333" r="3.5" fill="#3772b5"/><circle cx="264" cy="163.99555555555554" r="3.5" fill="#3772b5"/><circle cx="408" cy="166.84" r="3.5" fill="#3772b5"/><circle cx="552" cy="165.6311111111111" r="3.5" fill="#3772b5"/><circle cx="696" cy="164.0666666666667" r="3.5" fill="#3772b5"/><circle cx="840" cy="169.2577777777778" r="3.5" fill="#3772b5"/><rect x="880" y="103" width="14.0" height="14" fill="#3772b5" rx="2"/><text x="903" y="116" font-family="sans-serif" font-size="15" fill="#263238" text-anchor="start">美國 5.237%</text><polyline fill="none" stroke="#e38b48" stroke-width="3" points="120.0,162.2 264.0,161.5 408.0,156.7 552.0,157.6 696.0,158.4 840.0,161.5"/><circle cx="120" cy="162.21777777777777" r="3.5" fill="#e38b48"/><circle cx="264" cy="161.50666666666666" r="3.5" fill="#e38b48"/><circle cx="408" cy="156.7422222222222" r="3.5" fill="#e38b48"/><circle cx="552" cy="157.59555555555556" r="3.5" fill="#e38b48"/><circle cx="696" cy="158.44888888888886" r="3.5" fill="#e38b48"/><circle cx="840" cy="161.50666666666666" r="3.5" fill="#e38b48"/><rect x="880" y="146" width="14.0" height="14" fill="#e38b48" rx="2"/><text x="903" y="159" font-family="sans-serif" font-size="15" fill="#263238" text-anchor="start">澳洲 5.346%</text><polyline fill="none" stroke="#3d9577" stroke-width="3" points="120.0,321.1 264.0,322.1 408.0,320.6 552.0,320.7 696.0,322.7 840.0,325.1"/><circle cx="120" cy="321.08000000000004" r="3.5" fill="#3d9577"/><circle cx="264" cy="322.0755555555555" r="3.5" fill="#3d9577"/><circle cx="408" cy="320.58222222222224" r="3.5" fill="#3d9577"/><circle cx="552" cy="320.72444444444443" r="3.5" fill="#3d9577"/><circle cx="696" cy="322.7155555555555" r="3.5" fill="#3d9577"/><circle cx="840" cy="325.0622222222222" r="3.5" fill="#3d9577"/><rect x="880" y="189" width="14.0" height="14" fill="#3d9577" rx="2"/><text x="903" y="202" font-family="sans-serif" font-size="15" fill="#263238" text-anchor="start">日本 3.046%</text><polyline fill="none" stroke="#9577ad" stroke-width="3" points="120.0,296.0 264.0,293.3 408.0,294.1 552.0,294.2 696.0,294.2 840.0,293.2"/><circle cx="120" cy="296.0133333333333" r="3.5" fill="#9577ad"/><circle cx="264" cy="293.3324444444445" r="3.5" fill="#9577ad"/><circle cx="408" cy="294.1431111111111" r="3.5" fill="#9577ad"/><circle cx="552" cy="294.1644444444444" r="3.5" fill="#9577ad"/><circle cx="696" cy="294.1644444444444" r="3.5" fill="#9577ad"/><circle cx="840" cy="293.2257777777778" r="3.5" fill="#9577ad"/><rect x="880" y="232" width="14.0" height="14" fill="#9577ad" rx="2"/><text x="903" y="245" font-family="sans-serif" font-size="15" fill="#263238" text-anchor="start">德國 3.494%</text><polyline fill="none" stroke="#c05d69" stroke-width="3" points="120.0,196.1 264.0,195.7 408.0,203.8 552.0,195.4 696.0,193.8 840.0,194.3"/><circle cx="120" cy="196.13777777777779" r="3.5" fill="#c05d69"/><circle cx="264" cy="195.7111111111111" r="3.5" fill="#c05d69"/><circle cx="408" cy="203.81777777777776" r="3.5" fill="#c05d69"/><circle cx="552" cy="195.42666666666668" r="3.5" fill="#c05d69"/><circle cx="696" cy="193.7911111111111" r="3.5" fill="#c05d69"/><circle cx="840" cy="194.2888888888889" r="3.5" fill="#c05d69"/><rect x="880" y="275" width="14.0" height="14" fill="#c05d69" rx="2"/><text x="903" y="288" font-family="sans-serif" font-size="15" fill="#263238" text-anchor="start">法國 4.885%</text><polyline fill="none" stroke="#8e964b" stroke-width="3" points="120.0,159.7 264.0,155.8 408.0,159.1 552.0,154.1 696.0,154.1 840.0,151.3"/><circle cx="120" cy="159.72888888888886" r="3.5" fill="#8e964b"/><circle cx="264" cy="155.79644444444443" r="3.5" fill="#8e964b"/><circle cx="408" cy="159.11733333333333" r="3.5" fill="#8e964b"/><circle cx="552" cy="154.08266666666665" r="3.5" fill="#8e964b"/><circle cx="696" cy="154.08266666666665" r="3.5" fill="#8e964b"/><circle cx="840" cy="151.3306666666667" r="3.5" fill="#8e964b"/><rect x="880" y="318" width="14.0" height="14" fill="#8e964b" rx="2"/><text x="903" y="331" font-family="sans-serif" font-size="15" fill="#263238" text-anchor="start">英國 5.489%</text><polyline fill="none" stroke="#666" stroke-width="3" points="120.0,422.0 264.0,422.0 408.0,422.0 552.0,422.0 696.0,420.9 840.0,420.7"/><circle cx="120" cy="421.9866666666667" r="3.5" fill="#666"/><circle cx="264" cy="421.9866666666667" r="3.5" fill="#666"/><circle cx="408" cy="421.9866666666667" r="3.5" fill="#666"/><circle cx="552" cy="421.9866666666667" r="3.5" fill="#666"/><circle cx="696" cy="420.9342222222222" r="3.5" fill="#666"/><circle cx="840" cy="420.6568888888889" r="3.5" fill="#666"/><rect x="880" y="361" width="14.0" height="14" fill="#666" rx="2"/><text x="903" y="374" font-family="sans-serif" font-size="15" fill="#263238" text-anchor="start">中國 1.702%</text></svg>